<svg width="24" height="24" viewBox="0 0 24 24" fill="none" xmlns="http://www.w3.org/2000/svg">
<path d="M20.2664 4.17256V18.9892C20.2664 19.3279 20.1318 19.6528 19.8922 19.8924C19.6527 20.1319 19.3278 20.2665 18.9891 20.2665H4.17244C3.83368 20.2665 3.50879 20.1319 3.26925 19.8924C3.02971 19.6528 2.89514 19.3279 2.89514 18.9892V4.17256C2.89514 3.8338 3.02971 3.50891 3.26925 3.26937C3.50879 3.02984 3.83368 2.89526 4.17244 2.89526H18.9891C19.3278 2.89526 19.6527 3.02984 19.8922 3.26937C20.1318 3.50891 20.2664 3.8338 20.2664 4.17256ZM8.00432 9.5372H5.44973V17.7119H8.00432V9.5372ZM8.23423 6.72715C8.23558 6.53391 8.19885 6.34231 8.12615 6.16327C8.05344 5.98423 7.94618 5.82126 7.81049 5.68368C7.67481 5.54609 7.51335 5.43658 7.33533 5.36139C7.15732 5.28621 6.96624 5.24682 6.77301 5.24549H6.72703C6.33407 5.24549 5.9572 5.40159 5.67933 5.67946C5.40147 5.95732 5.24536 6.33419 5.24536 6.72715C5.24536 7.12011 5.40147 7.49698 5.67933 7.77484C5.9572 8.05271 6.33407 8.20881 6.72703 8.20881C6.92027 8.21356 7.11256 8.1802 7.29291 8.11061C7.47326 8.04102 7.63812 7.93658 7.77809 7.80325C7.91806 7.66993 8.03039 7.51033 8.10866 7.33358C8.18692 7.15682 8.22959 6.96638 8.23423 6.77313V6.72715ZM17.7118 12.7458C17.7118 10.2882 16.1484 9.33283 14.5952 9.33283C14.0866 9.30737 13.5803 9.41568 13.1267 9.64697C12.673 9.87827 12.288 10.2245 12.0099 10.651H11.9384V9.5372H9.53708V17.7119H12.0917V13.364C12.0547 12.9187 12.195 12.4768 12.482 12.1343C12.769 11.7918 13.1795 11.5764 13.6244 11.5349H13.7215C14.5339 11.5349 15.1367 12.0458 15.1367 13.3333V17.7119H17.6913L17.7118 12.7458Z" fill="white"/>
</svg>
