<svg width="24" height="24" viewBox="0 0 24 24" fill="none" xmlns="http://www.w3.org/2000/svg">
<path fill-rule="evenodd" clip-rule="evenodd" d="M11.5807 2.89526C9.22174 2.89526 8.92643 2.90511 7.99996 2.94738C7.07523 2.98965 6.4435 3.13672 5.8911 3.35155C5.31206 3.56927 4.78687 3.9109 4.35259 4.35329C3.91091 4.78707 3.56906 5.31189 3.35085 5.89122C3.13718 6.44362 2.98953 7.07594 2.94726 8.00066C2.90556 8.92655 2.89514 9.22128 2.89514 11.5809C2.89514 13.9405 2.90499 14.2352 2.94726 15.1617C2.98953 16.0864 3.1366 16.7181 3.35143 17.2705C3.56914 17.8496 3.91078 18.3748 4.35317 18.809C4.78696 19.2507 5.31177 19.5925 5.8911 19.8108C6.4435 20.025 7.07523 20.1721 7.99996 20.2144C8.92643 20.2566 9.22174 20.2665 11.5807 20.2665C13.9398 20.2665 14.2351 20.2566 15.1615 20.2144C16.0863 20.1721 16.718 20.025 17.2704 19.8102C17.8494 19.5925 18.3746 19.2508 18.8089 18.8085C19.2506 18.3747 19.5924 17.8499 19.8106 17.2705C20.0249 16.7181 20.172 16.0864 20.2142 15.1617C20.2565 14.2352 20.2664 13.9399 20.2664 11.5809C20.2664 9.22186 20.2565 8.92655 20.2142 8.00008C20.172 7.07536 20.0249 6.44362 19.8101 5.89122C19.592 5.31164 19.2502 4.7866 18.8083 4.35271C18.3746 3.91103 17.8497 3.56918 17.2704 3.35097C16.718 3.1373 16.0857 2.98965 15.161 2.94738C14.2351 2.90569 13.9403 2.89526 11.5807 2.89526ZM11.5807 4.46041C13.8998 4.46041 14.1748 4.4691 15.0909 4.51079C15.9374 4.54958 16.3972 4.69029 16.7035 4.81015C17.1088 4.96707 17.3984 5.15584 17.7024 5.45925C18.0064 5.76325 18.1945 6.05277 18.3515 6.4581C18.4707 6.76441 18.612 7.22417 18.6508 8.07073C18.6925 8.98677 18.7012 9.26181 18.7012 11.5809C18.7012 13.8999 18.6925 14.175 18.6508 15.091C18.612 15.9376 18.4713 16.3973 18.3515 16.7036C18.2125 17.0809 17.9907 17.4222 17.7024 17.7025C17.4222 17.9908 17.0808 18.2127 16.7035 18.3516C16.3972 18.4709 15.9374 18.6122 15.0909 18.651C14.1748 18.6926 13.9004 18.7013 11.5807 18.7013C9.26111 18.7013 8.98665 18.6926 8.0706 18.651C7.22405 18.6122 6.76429 18.4715 6.45798 18.3516C6.08071 18.2126 5.73939 17.9908 5.45913 17.7025C5.17087 17.4222 4.94907 17.0809 4.81003 16.7036C4.69075 16.3973 4.54946 15.9376 4.51066 15.091C4.46897 14.175 4.46029 13.8999 4.46029 11.5809C4.46029 9.26181 4.46897 8.98677 4.51066 8.07073C4.54946 7.22417 4.69017 6.76441 4.81003 6.4581C4.96695 6.05277 5.15572 5.76325 5.45913 5.45925C5.73935 5.17092 6.08068 4.94911 6.45798 4.81015C6.76429 4.69087 7.22405 4.54958 8.0706 4.51079C8.98665 4.4691 9.26169 4.46041 11.5807 4.46041Z" fill="white"/>
<path fill-rule="evenodd" clip-rule="evenodd" d="M11.5809 14.4788C11.2003 14.4788 10.8234 14.4039 10.4718 14.2582C10.1202 14.1126 9.8007 13.8991 9.53159 13.63C9.26248 13.3609 9.04901 13.0414 8.90336 12.6898C8.75772 12.3382 8.68276 11.9613 8.68276 11.5807C8.68276 11.2002 8.75772 10.8233 8.90336 10.4717C9.04901 10.1201 9.26248 9.8006 9.53159 9.53148C9.8007 9.26237 10.1202 9.0489 10.4718 8.90326C10.8234 8.75761 11.2003 8.68265 11.5809 8.68265C12.3495 8.68265 13.0866 8.98799 13.6301 9.53148C14.1736 10.075 14.479 10.8121 14.479 11.5807C14.479 12.3494 14.1736 13.0865 13.6301 13.63C13.0866 14.1735 12.3495 14.4788 11.5809 14.4788ZM11.5809 7.11635C10.3968 7.11635 9.26128 7.5867 8.42405 8.42394C7.58681 9.26118 7.11646 10.3967 7.11646 11.5807C7.11646 12.7648 7.58681 13.9003 8.42405 14.7376C9.26128 15.5748 10.3968 16.0451 11.5809 16.0451C12.7649 16.0451 13.9004 15.5748 14.7377 14.7376C15.5749 13.9003 16.0453 12.7648 16.0453 11.5807C16.0453 10.3967 15.5749 9.26118 14.7377 8.42394C13.9004 7.5867 12.7649 7.11635 11.5809 7.11635ZM17.344 7.03528C17.344 7.31517 17.2329 7.58359 17.035 7.78149C16.837 7.9794 16.5686 8.09058 16.2887 8.09058C16.0089 8.09058 15.7404 7.9794 15.5425 7.78149C15.3446 7.58359 15.2334 7.31517 15.2334 7.03528C15.2334 6.7554 15.3446 6.48698 15.5425 6.28907C15.7404 6.09116 16.0089 5.97998 16.2887 5.97998C16.5686 5.97998 16.837 6.09116 17.035 6.28907C17.2329 6.48698 17.344 6.7554 17.344 7.03528Z" fill="white"/>
</svg>
