<svg width="24" height="23" viewBox="0 0 24 23" fill="none" xmlns="http://www.w3.org/2000/svg">
<g clip-path="url(#clip0_176_6)">
<g clip-path="url(#clip1_176_6)">
<path d="M6.75715 4.79175C10.489 4.79175 13.514 7.79525 13.514 11.5004C13.514 15.2055 10.4887 18.2087 6.75715 18.2087C3.02564 18.2087 0 15.2052 0 11.5004C0 7.79554 3.02534 4.79175 6.75715 4.79175ZM17.5477 5.18479C19.4137 5.18479 20.9261 8.012 20.9261 11.5004C20.9261 14.9879 19.4134 17.816 17.5477 17.816C15.6819 17.816 14.1693 14.9879 14.1693 11.5004C14.1693 8.01288 15.6816 5.18479 17.5477 5.18479ZM22.77 5.84272C23.4262 5.84272 23.9583 8.37581 23.9583 11.5004C23.9583 14.6249 23.4265 17.158 22.77 17.158C22.1135 17.158 21.582 14.6247 21.582 11.5004C21.582 8.3761 22.1138 5.84272 22.77 5.84272Z" fill="white"/>
</g>
</g>
<defs>
<clipPath id="clip0_176_6">
<rect width="23.9583" height="23" fill="white"/>
</clipPath>
<clipPath id="clip1_176_6">
<rect width="23.9583" height="13.4167" fill="white" transform="translate(0 4.79175)"/>
</clipPath>
</defs>
</svg>
