<svg width="24" height="23" viewBox="0 0 24 23" fill="none" xmlns="http://www.w3.org/2000/svg">
<path fill-rule="evenodd" clip-rule="evenodd" d="M21.9619 11.5001C21.9619 16.7928 17.4925 21.0834 11.9792 21.0834C6.46596 21.0834 1.99658 16.7928 1.99658 11.5001C1.99658 6.20735 6.46596 1.91675 11.9792 1.91675C17.4925 1.91675 21.9619 6.20735 21.9619 11.5001ZM12.3369 8.9916C11.366 9.3793 9.42542 10.1817 6.51528 11.3989C6.04272 11.5793 5.79517 11.7558 5.77264 11.9284C5.73455 12.22 6.115 12.3349 6.63306 12.4913C6.70353 12.5125 6.77655 12.5346 6.8514 12.5579C7.3611 12.717 8.04673 12.9031 8.40316 12.9105C8.72648 12.9172 9.08734 12.7892 9.48574 12.5266C12.2048 10.7646 13.6084 9.87397 13.6965 9.85477C13.7586 9.84122 13.8448 9.82419 13.9032 9.874C13.9615 9.9238 13.9558 10.0181 13.9496 10.0434C13.9119 10.1977 12.4185 11.5305 11.6457 12.2203C11.4048 12.4353 11.2339 12.5878 11.199 12.6227C11.1207 12.7007 11.0409 12.7745 10.9643 12.8454C10.4908 13.2837 10.1357 13.6123 10.9839 14.1489C11.3916 14.4068 11.7178 14.6201 12.0432 14.8328C12.3986 15.0652 12.7531 15.2969 13.2117 15.5855C13.3286 15.6591 13.4402 15.7354 13.5489 15.8098C13.9625 16.0929 14.3341 16.3472 14.7931 16.3066C15.0599 16.2831 15.3354 16.0423 15.4754 15.3241C15.8061 13.6269 16.4561 9.94955 16.6063 8.4342C16.6195 8.30144 16.6029 8.13153 16.5896 8.05694C16.5763 7.98235 16.5486 7.87608 16.4476 7.79741C16.328 7.70424 16.1433 7.68459 16.0607 7.68599C15.6853 7.69234 15.1092 7.88463 12.3369 8.9916Z" fill="white"/>
</svg>
