<svg width="378" height="35" viewBox="0 0 378 35" fill="none" xmlns="http://www.w3.org/2000/svg">
<path d="M15.3636 0C17.2403 0 18.7831 0.269474 19.9918 0.808424C21.2005 1.31567 22.5206 2.07654 23.952 3.09103C24.3655 3.40806 24.6836 3.56658 24.9062 3.56658C25.5106 3.56658 25.9082 2.59964 26.0991 0.665763H27.1965C27.0692 2.72645 27.0056 6.37228 27.0056 11.6033H25.9082C25.6219 9.92301 25.3198 8.54393 25.0017 7.46603C24.6836 6.35643 24.1905 5.38949 23.5226 4.56522C22.6001 3.42391 21.3914 2.52038 19.8964 1.85462C18.4332 1.18886 16.8904 0.855978 15.2682 0.855978C13.1688 0.855978 11.3239 1.53759 9.73347 2.90082C8.14304 4.26404 6.9184 6.21377 6.05957 8.75C5.20073 11.2545 4.77131 14.187 4.77131 17.5476C4.77131 23.2541 5.67786 27.4389 7.49096 30.1019C9.33587 32.7332 12.2146 34.0489 16.127 34.0489C18.0356 34.0489 19.6896 33.5575 21.0892 32.5747C21.6618 32.1943 22.0276 31.8297 22.1866 31.481C22.3774 31.1005 22.4729 30.5933 22.4729 29.9592V25.394C22.4729 24.0625 22.3456 23.0956 22.0912 22.4932C21.8367 21.8909 21.3914 21.4787 20.7552 21.2568C20.119 21.0349 19.0852 20.8922 17.6539 20.8288V19.8777C19.3079 19.9728 21.5504 20.0204 24.3814 20.0204C26.5444 20.0204 28.1984 19.9728 29.3436 19.8777V20.8288C28.612 20.8922 28.0712 21.019 27.7213 21.2092C27.4032 21.3995 27.1806 21.764 27.0533 22.303C26.9579 22.8419 26.9102 23.7138 26.9102 24.9185V34.3342H25.9559C25.9241 33.7002 25.7969 33.0978 25.5742 32.5272C25.3516 31.9248 25.0494 31.6236 24.6677 31.6236C24.4768 31.6236 24.286 31.6712 24.0951 31.7663C23.9043 31.8614 23.5703 32.0833 23.0931 32.4321C21.9798 33.288 20.8188 33.9221 19.6101 34.3342C18.4332 34.7781 17.1131 35 15.6499 35C12.3736 35 9.55853 34.3342 7.20468 33.0027C4.88264 31.6395 3.10135 29.6898 1.86081 27.1535C0.62027 24.6173 0 21.5897 0 18.0707C0 14.4565 0.652079 11.2862 1.95624 8.55978C3.2922 5.80163 5.12121 3.69339 7.44324 2.23506C9.76528 0.745018 12.4054 0 15.3636 0Z" fill="black"/>
<path d="M45.1426 1.61685C43.9974 1.68025 43.1545 1.80707 42.6138 1.99729C42.1048 2.1875 41.7549 2.55209 41.5641 3.09103C41.3732 3.62998 41.2778 4.50181 41.2778 5.70652V29.2935C41.2778 30.4982 41.3732 31.37 41.5641 31.909C41.7549 32.4479 42.1048 32.8125 42.6138 33.0027C43.1545 33.1612 43.9974 33.2405 45.1426 33.2405H48.6256C50.5978 33.2405 52.0928 32.971 53.1107 32.4321C54.1603 31.8614 54.9237 30.9579 55.4009 29.7215C55.878 28.4851 56.2279 26.6938 56.4506 24.3478H57.548C57.4525 25.3306 57.4048 26.6304 57.4048 28.2473C57.4048 30.0543 57.5162 32.0833 57.7388 34.3342C55.5758 34.2391 51.9337 34.1916 46.8125 34.1916C40.7052 34.1916 36.093 34.2391 32.9757 34.3342V33.3832C34.1208 33.3197 34.9479 33.1929 35.4568 33.0027C35.9975 32.8125 36.3633 32.4479 36.5542 31.909C36.7451 31.37 36.8405 30.4982 36.8405 29.2935V5.70652C36.8405 4.50181 36.7451 3.62998 36.5542 3.09103C36.3633 2.55209 35.9975 2.1875 35.4568 1.99729C34.9479 1.80707 34.1208 1.68025 32.9757 1.61685V0.665763C34.3117 0.760871 36.3474 0.808424 39.083 0.808424C41.6277 0.808424 43.6475 0.760871 45.1426 0.665763V1.61685Z" fill="black"/>
<path d="M76.7234 0C79.7453 0 82.3854 0.681612 84.6438 2.04484C86.934 3.40806 88.6994 5.38949 89.9399 7.98913C91.2123 10.5571 91.8485 13.6322 91.8485 17.2147C91.8485 20.702 91.1964 23.793 89.8922 26.4878C88.6199 29.1825 86.8227 31.2749 84.5007 32.7649C82.2104 34.255 79.6021 35 76.6757 35C73.6539 35 70.9978 34.3184 68.7076 32.9552C66.4492 31.5919 64.6838 29.6264 63.4115 27.0584C62.1709 24.4588 61.5507 21.3678 61.5507 17.7853C61.5507 14.298 62.1868 11.207 63.4592 8.51223C64.7633 5.81748 66.5605 3.72509 68.8508 2.23506C71.1728 0.745018 73.797 0 76.7234 0ZM76.5326 0.855978C74.4968 0.855978 72.6996 1.56929 71.141 2.99592C69.6142 4.39085 68.4213 6.35643 67.5625 8.89266C66.7355 11.4289 66.322 14.3297 66.322 17.5951C66.322 20.8922 66.7832 23.793 67.7056 26.2976C68.6599 28.8021 69.9323 30.736 71.5227 32.0992C73.1131 33.4624 74.8944 34.144 76.8666 34.144C78.9023 34.144 80.6836 33.4466 82.2104 32.0516C83.7691 30.625 84.9619 28.6436 85.7889 26.1073C86.6477 23.5711 87.0772 20.6703 87.0772 17.4049C87.0772 14.1078 86.6 11.207 85.6458 8.70245C84.7233 6.19792 83.4669 4.26404 81.8764 2.90082C80.286 1.53759 78.5047 0.855978 76.5326 0.855978Z" fill="black"/>
<path d="M125.505 31.9565C124.774 33.0344 124.042 33.8111 123.31 34.2867C122.579 34.7622 121.609 35 120.4 35C119.096 35 118.014 34.6196 117.155 33.8587C116.328 33.0978 115.708 31.7663 115.295 29.8641L114.245 25.1087C113.863 23.4601 113.497 22.192 113.148 21.3043C112.829 20.4167 112.336 19.7034 111.668 19.1644C111 18.6255 110.062 18.356 108.853 18.356H104.321V29.2935C104.321 30.4982 104.416 31.37 104.607 31.909C104.798 32.4479 105.148 32.8125 105.657 33.0027C106.197 33.1929 107.04 33.3197 108.185 33.3832V34.3342C106.722 34.2391 104.702 34.1916 102.126 34.1916C99.3902 34.1916 97.3545 34.2391 96.0185 34.3342V33.3832C97.1636 33.3197 97.9907 33.1929 98.4996 33.0027C99.0404 32.8125 99.4062 32.4479 99.597 31.909C99.7879 31.37 99.8833 30.4982 99.8833 29.2935V5.70652C99.8833 4.50181 99.7879 3.62998 99.597 3.09103C99.4062 2.55209 99.0404 2.1875 98.4996 1.99729C97.9907 1.80707 97.1636 1.68025 96.0185 1.61685V0.665763C97.3545 0.760871 99.2948 0.808424 101.84 0.808424L106.993 0.760871C107.597 0.729169 108.281 0.713317 109.044 0.713317C112.734 0.713317 115.565 1.49004 117.537 3.04348C119.541 4.56522 120.543 6.54665 120.543 8.98777C120.543 10.2242 120.241 11.4764 119.637 12.7446C119.064 13.981 118.078 15.1064 116.678 16.1209C115.311 17.1037 113.513 17.7695 111.287 18.1182L111.859 18.2133C113.959 18.562 115.485 19.1961 116.44 20.1155C117.394 21.0349 118.094 22.4932 118.539 24.4905L119.732 29.341C120.05 30.7994 120.384 31.8139 120.734 32.3845C121.084 32.9552 121.561 33.2405 122.165 33.2405C122.706 33.2405 123.151 33.0978 123.501 32.8125C123.883 32.5272 124.312 32.0675 124.79 31.4334L125.505 31.9565ZM107.851 1.61685C106.865 1.61685 106.118 1.72781 105.609 1.94973C105.132 2.17165 104.798 2.56794 104.607 3.13859C104.416 3.70924 104.321 4.56522 104.321 5.70652V17.4049H107.517C110.666 17.4049 112.829 16.7074 114.006 15.3125C115.183 13.9176 115.772 11.9837 115.772 9.51087C115.772 6.91123 115.151 4.94565 113.911 3.61413C112.67 2.28261 110.651 1.61685 107.851 1.61685Z" fill="black"/>
<path d="M147.24 0.808424C148.672 0.808424 149.865 0.760871 150.819 0.665763V1.61685C150.183 1.77536 149.562 2.1875 148.958 2.85326C148.354 3.48732 147.702 4.48596 147.002 5.84918L139.511 20.6386V29.2935C139.511 30.4982 139.606 31.37 139.797 31.909C139.988 32.4479 140.338 32.8125 140.847 33.0027C141.388 33.1929 142.231 33.3197 143.376 33.3832V34.3342C141.912 34.2391 139.893 34.1916 137.316 34.1916C134.581 34.1916 132.545 34.2391 131.209 34.3342V33.3832C132.354 33.3197 133.181 33.1929 133.69 33.0027C134.231 32.8125 134.596 32.4479 134.787 31.909C134.978 31.37 135.074 30.4982 135.074 29.2935V22.1603L125.388 4.32745C124.815 3.28125 124.306 2.58379 123.861 2.23506C123.447 1.85462 123.034 1.6644 122.62 1.6644V0.665763C123.861 0.760871 125.261 0.808424 126.819 0.808424C129.905 0.808424 132.131 0.760871 133.499 0.665763V1.6644C131.272 1.6644 130.159 2.26676 130.159 3.47147C130.159 3.94701 130.318 4.50181 130.636 5.13587L138.557 20.3057L144.664 8.2269C145.523 6.54665 145.952 5.18342 145.952 4.13723C145.952 3.24955 145.602 2.61549 144.902 2.23506C144.203 1.85462 143.153 1.64855 141.753 1.61685V0.665763C143.566 0.760871 145.395 0.808424 147.24 0.808424Z" fill="black"/>
<path d="M187.11 0.665763C186.888 2.91667 186.776 4.94565 186.776 6.75272C186.776 8.33786 186.824 9.63768 186.919 10.6522H185.822C185.568 8.21105 185.249 6.40399 184.868 5.23098C184.486 4.02627 183.818 3.15444 182.864 2.61549C181.91 2.04484 180.446 1.75951 178.474 1.75951H175.468C174.323 1.75951 173.48 1.85462 172.939 2.04484C172.431 2.20335 172.081 2.55209 171.89 3.09103C171.699 3.62998 171.604 4.50181 171.604 5.70652V17.4049H175.087C176.2 17.4049 177.059 17.1513 177.663 16.644C178.267 16.1051 178.665 15.4869 178.856 14.7894C179.079 14.0602 179.254 13.1567 179.381 12.0788L179.524 11.1277H180.621C180.526 12.4592 180.478 13.9493 180.478 15.5978V17.8804C180.478 19.4973 180.574 21.7482 180.764 24.6332H179.667C179.635 24.4112 179.54 23.6504 179.381 22.3505C179.222 21.019 178.776 20.0204 178.045 19.3546C177.345 18.6889 176.359 18.356 175.087 18.356H171.604V29.2935C171.604 30.4982 171.731 31.37 171.985 31.909C172.24 32.4479 172.685 32.8125 173.321 33.0027C173.957 33.1929 174.991 33.3197 176.423 33.3832V34.3342C174.769 34.2391 172.431 34.1916 169.409 34.1916C166.673 34.1916 164.637 34.2391 163.301 34.3342V33.3832C164.447 33.3197 165.274 33.1929 165.783 33.0027C166.323 32.8125 166.689 32.4479 166.88 31.909C167.071 31.37 167.166 30.4982 167.166 29.2935V5.70652C167.166 4.50181 167.071 3.62998 166.88 3.09103C166.689 2.55209 166.323 2.1875 165.783 1.99729C165.274 1.80707 164.447 1.68025 163.301 1.61685V0.665763C166.419 0.760871 171.031 0.808424 177.138 0.808424C181.814 0.808424 185.138 0.760871 187.11 0.665763Z" fill="black"/>
<path d="M202.633 1.61685C201.488 1.68025 200.645 1.80707 200.104 1.99729C199.595 2.1875 199.245 2.55209 199.055 3.09103C198.864 3.62998 198.768 4.50181 198.768 5.70652V29.2935C198.768 30.4982 198.864 31.37 199.055 31.909C199.245 32.4479 199.595 32.8125 200.104 33.0027C200.645 33.1612 201.488 33.2405 202.633 33.2405H206.116C208.088 33.2405 209.583 32.971 210.601 32.4321C211.651 31.8614 212.414 30.9579 212.891 29.7215C213.369 28.4851 213.718 26.6938 213.941 24.3478H215.039C214.943 25.3306 214.895 26.6304 214.895 28.2473C214.895 30.0543 215.007 32.0833 215.229 34.3342C213.066 34.2391 209.424 34.1916 204.303 34.1916C198.196 34.1916 193.583 34.2391 190.466 34.3342V33.3832C191.611 33.3197 192.438 33.1929 192.947 33.0027C193.488 32.8125 193.854 32.4479 194.045 31.909C194.236 31.37 194.331 30.4982 194.331 29.2935V5.70652C194.331 4.50181 194.236 3.62998 194.045 3.09103C193.854 2.55209 193.488 2.1875 192.947 1.99729C192.438 1.80707 191.611 1.68025 190.466 1.61685V0.665763C191.802 0.760871 193.838 0.808424 196.574 0.808424C199.118 0.808424 201.138 0.760871 202.633 0.665763V1.61685Z" fill="black"/>
<path d="M234.214 0C237.236 0 239.876 0.681612 242.134 2.04484C244.425 3.40806 246.19 5.38949 247.43 7.98913C248.703 10.5571 249.339 13.6322 249.339 17.2147C249.339 20.702 248.687 23.793 247.383 26.4878C246.11 29.1825 244.313 31.2749 241.991 32.7649C239.701 34.255 237.093 35 234.166 35C231.144 35 228.488 34.3184 226.198 32.9552C223.94 31.5919 222.174 29.6264 220.902 27.0584C219.661 24.4588 219.041 21.3678 219.041 17.7853C219.041 14.298 219.677 11.207 220.95 8.51223C222.254 5.81748 224.051 3.72509 226.341 2.23506C228.663 0.745018 231.288 0 234.214 0ZM234.023 0.855978C231.987 0.855978 230.19 1.56929 228.632 2.99592C227.105 4.39085 225.912 6.35643 225.053 8.89266C224.226 11.4289 223.812 14.3297 223.812 17.5951C223.812 20.8922 224.274 23.793 225.196 26.2976C226.15 28.8021 227.423 30.736 229.013 32.0992C230.604 33.4624 232.385 34.144 234.357 34.144C236.393 34.144 238.174 33.4466 239.701 32.0516C241.26 30.625 242.452 28.6436 243.279 26.1073C244.138 23.5711 244.568 20.6703 244.568 17.4049C244.568 14.1078 244.091 11.207 243.136 8.70245C242.214 6.19792 240.957 4.26404 239.367 2.90082C237.777 1.53759 235.995 0.855978 234.023 0.855978Z" fill="black"/>
<path d="M291.063 0.808424C292.494 0.808424 293.687 0.760871 294.641 0.665763V1.61685C292.86 2.02899 291.603 3.40806 290.872 5.75408L281.854 34.572H281.472H281.091L272.789 10.0815L265.202 34.572H264.82H264.439L254.324 4.66033C253.656 2.69475 252.558 1.68025 251.031 1.61685V0.665763C252.335 0.760871 254.037 0.808424 256.137 0.808424C258.427 0.808424 260.145 0.760871 261.29 0.665763V1.61685C260.431 1.68025 259.826 1.83877 259.477 2.09239C259.127 2.34602 258.952 2.7423 258.952 3.28125C258.952 3.7885 259.127 4.56522 259.477 5.61141L266.443 26.8207L272.264 8.41712L270.975 4.66033C270.339 2.69475 269.401 1.68025 268.16 1.61685V0.665763C269.305 0.760871 270.848 0.808424 272.789 0.808424C275.524 0.808424 277.56 0.760871 278.896 0.665763V1.61685C277.687 1.68025 276.844 1.82292 276.367 2.04484C275.89 2.23505 275.651 2.66304 275.651 3.32881C275.651 3.89946 275.81 4.66033 276.128 5.61141L282.999 26.7731L288.868 8.36957C289.377 6.81612 289.631 5.53216 289.631 4.51766C289.631 3.47147 289.313 2.7423 288.677 2.33016C288.041 1.88632 287.007 1.64855 285.576 1.61685V0.665763C287.389 0.760871 289.218 0.808424 291.063 0.808424Z" fill="black"/>
<path d="M320.992 28.2473C320.992 30.0543 321.103 32.0833 321.326 34.3342C319.163 34.2391 315.521 34.1916 310.399 34.1916C304.292 34.1916 299.68 34.2391 296.563 34.3342V33.3832C297.708 33.3197 298.535 33.1929 299.044 33.0027C299.585 32.8125 299.95 32.4479 300.141 31.909C300.332 31.37 300.427 30.4982 300.427 29.2935V5.70652C300.427 4.50181 300.332 3.62998 300.141 3.09103C299.95 2.55209 299.585 2.1875 299.044 1.99729C298.535 1.80707 297.708 1.68025 296.563 1.61685V0.665763C299.68 0.760871 304.292 0.808424 310.399 0.808424C315.075 0.808424 318.399 0.760871 320.371 0.665763C320.149 2.75815 320.038 4.62862 320.038 6.27717C320.038 7.51359 320.085 8.49638 320.181 9.22554H319.083C318.861 7.16486 318.574 5.64312 318.224 4.66033C317.875 3.64584 317.286 2.91667 316.459 2.47283C315.632 1.99728 314.376 1.75951 312.69 1.75951H308.73C307.584 1.75951 306.741 1.85462 306.201 2.04484C305.692 2.20335 305.342 2.55209 305.151 3.09103C304.96 3.62998 304.865 4.50181 304.865 5.70652V16.9293H308.014C309.127 16.9293 309.986 16.6757 310.59 16.1685C311.195 15.6295 311.592 15.0113 311.783 14.3139C312.006 13.5847 312.181 12.6812 312.308 11.6033L312.451 10.6522H313.549C313.453 11.9837 313.405 13.4737 313.405 15.1223V17.4049C313.405 19.0217 313.501 21.2726 313.692 24.1576H312.594C312.562 23.9357 312.467 23.1748 312.308 21.875C312.149 20.5435 311.704 19.5448 310.972 18.8791C310.272 18.2133 309.286 17.8804 308.014 17.8804H304.865V29.2935C304.865 30.4982 304.96 31.37 305.151 31.909C305.342 32.4479 305.692 32.8125 306.201 33.0027C306.741 33.1612 307.584 33.2405 308.73 33.2405H312.213C314.185 33.2405 315.68 32.9869 316.698 32.4796C317.747 31.9407 318.511 31.1005 318.988 29.9592C319.465 28.7862 319.815 27.0743 320.038 24.8234H321.135C321.04 25.6793 320.992 26.8207 320.992 28.2473Z" fill="black"/>
<path d="M355.125 31.9565C354.393 33.0344 353.661 33.8111 352.93 34.2867C352.198 34.7622 351.228 35 350.019 35C348.715 35 347.634 34.6196 346.775 33.8587C345.948 33.0978 345.327 31.7663 344.914 29.8641L343.864 25.1087C343.483 23.4601 343.117 22.192 342.767 21.3043C342.449 20.4167 341.956 19.7034 341.288 19.1644C340.62 18.6255 339.681 18.356 338.473 18.356H333.94V29.2935C333.94 30.4982 334.035 31.37 334.226 31.909C334.417 32.4479 334.767 32.8125 335.276 33.0027C335.817 33.1929 336.66 33.3197 337.805 33.3832V34.3342C336.341 34.2391 334.322 34.1916 331.745 34.1916C329.01 34.1916 326.974 34.2391 325.638 34.3342V33.3832C326.783 33.3197 327.61 33.1929 328.119 33.0027C328.66 32.8125 329.025 32.4479 329.216 31.909C329.407 31.37 329.503 30.4982 329.503 29.2935V5.70652C329.503 4.50181 329.407 3.62998 329.216 3.09103C329.025 2.55209 328.66 2.1875 328.119 1.99729C327.61 1.80707 326.783 1.68025 325.638 1.61685V0.665763C326.974 0.760871 328.914 0.808424 331.459 0.808424L336.612 0.760871C337.216 0.729169 337.9 0.713317 338.664 0.713317C342.353 0.713317 345.184 1.49004 347.156 3.04348C349.16 4.56522 350.162 6.54665 350.162 8.98777C350.162 10.2242 349.86 11.4764 349.256 12.7446C348.683 13.981 347.697 15.1064 346.298 16.1209C344.93 17.1037 343.133 17.7695 340.906 18.1182L341.479 18.2133C343.578 18.562 345.105 19.1961 346.059 20.1155C347.013 21.0349 347.713 22.4932 348.158 24.4905L349.351 29.341C349.669 30.7994 350.003 31.8139 350.353 32.3845C350.703 32.9552 351.18 33.2405 351.785 33.2405C352.325 33.2405 352.771 33.0978 353.121 32.8125C353.502 32.5272 353.932 32.0675 354.409 31.4334L355.125 31.9565ZM337.471 1.61685C336.485 1.61685 335.737 1.72781 335.228 1.94973C334.751 2.17165 334.417 2.56794 334.226 3.13859C334.035 3.70924 333.94 4.56522 333.94 5.70652V17.4049H337.137C340.286 17.4049 342.449 16.7074 343.626 15.3125C344.803 13.9176 345.391 11.9837 345.391 9.51087C345.391 6.91123 344.771 4.94565 343.53 3.61413C342.29 2.28261 340.27 1.61685 337.471 1.61685Z" fill="black"/>
<path d="M366.787 0.142664C368.187 0.142664 369.284 0.301178 370.08 0.618207C370.907 0.903533 371.75 1.33152 372.608 1.90217C373.308 2.34602 373.849 2.56793 374.231 2.56793C374.517 2.56793 374.74 2.40942 374.899 2.09239C375.058 1.74366 375.185 1.20471 375.28 0.475545H376.378C376.219 2.31431 376.139 5.54801 376.139 10.1766H375.042C374.851 7.6087 374.103 5.4529 372.799 3.70924C371.527 1.93388 369.666 1.0462 367.217 1.0462C365.499 1.0462 364.1 1.56929 363.018 2.61549C361.937 3.62998 361.396 4.94565 361.396 6.5625C361.396 7.76721 361.666 8.81341 362.207 9.70109C362.78 10.5888 363.495 11.3496 364.354 11.9837C365.213 12.6178 366.438 13.4262 368.028 14.409L369.412 15.2649C371.416 16.5014 372.99 17.5951 374.135 18.5462C375.312 19.4656 376.251 20.5276 376.95 21.7323C377.65 22.937 378 24.3478 378 25.9647C378 28.8496 377.046 31.0847 375.137 32.6698C373.229 34.2233 370.811 35 367.885 35C366.358 35 365.102 34.8415 364.115 34.5245C363.161 34.2074 362.239 33.7794 361.348 33.2405C360.648 32.7966 360.108 32.5747 359.726 32.5747C359.44 32.5747 359.217 32.7491 359.058 33.0978C358.899 33.4149 358.772 33.938 358.676 34.6671H357.579C357.706 32.9235 357.77 29.1191 357.77 23.2541H358.867C359.09 26.4561 359.885 29.0557 361.253 31.053C362.62 33.0503 364.72 34.0489 367.551 34.0489C369.268 34.0489 370.732 33.5258 371.94 32.4796C373.149 31.4017 373.754 29.8166 373.754 27.7242C373.754 25.9488 373.149 24.4429 371.94 23.2065C370.764 21.9701 368.887 20.5752 366.31 19.0217C364.434 17.8804 362.907 16.8659 361.73 15.9783C360.585 15.0906 359.646 14.0285 358.915 12.7921C358.183 11.524 357.817 10.0498 357.817 8.36957C357.817 5.70652 358.676 3.67754 360.394 2.28261C362.112 0.855979 364.243 0.142664 366.787 0.142664Z" fill="black"/>
</svg>
