<?xml version="1.0" encoding="utf-8"?>
<!-- Generator: Adobe Illustrator 27.0.0, SVG Export Plug-In . SVG Version: 6.00 Build 0)  -->
<svg version="1.1" id="Layer_1" xmlns="http://www.w3.org/2000/svg" xmlns:xlink="http://www.w3.org/1999/xlink" x="0px" y="0px"
	 viewBox="0 0 90.53 80.96" style="enable-background:new 0 0 90.53 80.96;" xml:space="preserve">
<g>
	<path d="M83.56,80.96c-3.85,0-6.98-3.12-6.98-6.98V52.45c0-22.67-13.61-38.5-33.1-38.5c-8.38,0-15.96,2.97-21.33,8.36
		c-5.31,5.33-8.23,12.78-8.2,20.97c0.04,12.74,10.41,23.07,23.14,23.07c0.02,0,0.05,0,0.07,0c4.57-0.01,8.87-1.81,12.09-5.05
		c3.22-3.25,4.99-7.55,4.98-12.12c-0.02-6.99-4.88-12.52-11.29-12.85c-2.02-0.09-3.99,0.51-5.2,1.65c-0.93,0.88-1.38,2.03-1.39,3.53
		c0,0.3,0.07,2.99,3.07,3.36c3.82,0.47,6.55,3.95,6.08,7.77c-0.47,3.82-3.95,6.56-7.78,6.08c-10.11-1.24-15.36-9.63-15.33-17.27
		c0.03-5.29,2.07-10.12,5.76-13.6c3.98-3.76,9.68-5.74,15.5-5.45c13.94,0.72,24.48,12.21,24.52,26.74c0.03,8.3-3.18,16.11-9.03,22
		c-5.85,5.89-13.65,9.14-21.95,9.17c-0.04,0-0.08,0-0.12,0c-20.4,0-37.03-16.57-37.1-36.98C-0.04,31.4,4.32,20.44,12.27,12.46
		C20.28,4.43,31.37,0,43.49,0c27.26,0,47.05,22.06,47.05,52.45v21.53C90.53,77.84,87.41,80.96,83.56,80.96z"/>
</g>
</svg>
